<?xml version="1.0" encoding="utf-8"?>
<svg version="1.1" xmlns:xlink="http://www.w3.org/1999/xlink" width="213px" height="213px" xmlns="http://www.w3.org/2000/svg">
  <g transform="matrix(1 0 0 1 -572 -297 )">
    <path d="M 678.5 297  C 738.14 297  785 343.86  785 403.5  C 785 463.14  738.14 510  678.5 510  C 618.86 510  572 463.14  572 403.5  C 572 343.86  618.86 297  678.5 297  Z " fill-rule="nonzero" fill="#ffffff" stroke="none" />
    <path d="M 678.5 297.5  C 737.86 297.5  784.5 344.14  784.5 403.5  C 784.5 462.86  737.86 509.5  678.5 509.5  C 619.14 509.5  572.5 462.86  572.5 403.5  C 572.5 344.14  619.14 297.5  678.5 297.5  Z " stroke-width="1" stroke="#797979" fill="none" />
  </g>
</svg>