<svg width="16" height="16" viewBox="0 0 16 16" fill="none" xmlns="http://www.w3.org/2000/svg">
<path fill-rule="evenodd" clip-rule="evenodd" d="M14 2.5L12 3.5V2H2V14H14V15C14 15.2652 13.8946 15.5196 13.7071 15.7071C13.5196 15.8946 13.2652 16 13 16H1C0.734784 16 0.48043 15.8946 0.292893 15.7071C0.105357 15.5196 0 15.2652 0 15V1C0 0.734784 0.105357 0.48043 0.292893 0.292893C0.48043 0.105357 0.734784 0 1 0L13 0C13.2652 0 13.5196 0.105357 13.7071 0.292893C13.8946 0.48043 14 0.734784 14 1V2.5ZM11.019 6.202C11.799 5.142 12.426 4.399 12.901 3.972C13.376 3.544 13.839 3.331 14.29 3.331C14.83 3.331 15.203 3.515 15.408 3.884C15.518 4.076 15.572 4.308 15.572 4.582C15.572 4.862 15.459 5.118 15.233 5.351C15.1281 5.46298 15.001 5.55179 14.8598 5.61172C14.7186 5.67165 14.5664 5.70138 14.413 5.699C14.215 5.699 13.991 5.624 13.741 5.474C13.491 5.324 13.302 5.248 13.172 5.248C12.919 5.248 12.678 5.378 12.449 5.638C12.22 5.898 11.826 6.448 11.265 7.288L11.46 8.314C11.562 8.84 11.648 9.273 11.716 9.611C11.785 9.949 11.86 10.262 11.942 10.549C12.052 10.946 12.161 11.233 12.27 11.411C12.38 11.588 12.54 11.677 12.752 11.677C12.943 11.677 13.176 11.537 13.449 11.257C13.599 11.107 13.829 10.83 14.136 10.427L14.566 10.724C14.1785 11.3639 13.7043 11.9471 13.157 12.457C12.579 13.003 12.014 13.277 11.46 13.277C10.995 13.277 10.612 13.085 10.312 12.703C10.141 12.498 9.99 12.217 9.86 11.862C9.75133 11.5397 9.65723 11.2127 9.578 10.882C9.50655 10.592 9.42987 10.3033 9.348 10.016L9.204 10.262C8.527 11.424 8.032 12.18 7.717 12.528C7.246 13.048 6.699 13.308 6.077 13.308C5.721 13.308 5.412 13.186 5.149 12.944C5.02219 12.8317 4.92121 12.6933 4.85302 12.5383C4.78483 12.3833 4.75105 12.2153 4.754 12.046C4.754 11.752 4.851 11.481 5.046 11.231C5.241 10.981 5.513 10.857 5.861 10.857C6.073 10.857 6.335 10.932 6.646 11.083C6.956 11.233 7.16 11.308 7.256 11.308C7.468 11.308 7.651 11.214 7.804 11.026C7.958 10.838 8.261 10.372 8.712 9.626L9.122 8.95C9.054 8.663 8.98 8.31 8.902 7.894C8.823 7.477 8.742 7.049 8.661 6.612L8.497 5.74C8.38 5.111 8.196 4.698 7.943 4.5C7.799 4.383 7.563 4.325 7.235 4.325C7.02266 4.33749 6.81061 4.35449 6.599 4.376V3.812C7.215 3.737 7.889 3.642 8.625 3.525C9.11647 3.44994 9.60685 3.36793 10.096 3.279C10.301 3.553 10.47 3.884 10.604 4.274C10.737 4.664 10.838 5.077 10.906 5.514L11.019 6.202V6.202Z" fill="#1482C5"/>
</svg>
