<svg width="118" height="130" xmlns="http://www.w3.org/2000/svg" xmlns:xlink="http://www.w3.org/1999/xlink" xml:space="preserve" overflow="hidden"><defs><clipPath id="clip0"><rect x="0" y="0" width="118" height="130"/></clipPath><clipPath id="clip1"><rect x="0" y="0" width="118" height="130"/></clipPath></defs><g clip-path="url(#clip0)"><g clip-path="url(#clip1)"><path d="M116.73 54.7622C116.402 54.4921 113.45 52.279 107.107 52.279 105.467 52.279 103.772 52.4411 102.132 52.7109 100.929 44.4518 93.9854 40.4572 93.712 40.2414L92.0171 39.2695 90.9237 40.8351C89.5568 42.9404 88.518 45.3156 87.9165 47.7447 86.7685 52.4411 87.4791 56.8675 89.8848 60.646 86.9871 62.2656 82.285 62.6435 81.301 62.6973L3.66259 62.6973C1.63969 62.6973-0.000591376 64.3169-0.000591376 66.3141-0.109799 73.0077 1.03826 79.7013 3.38937 86.017 6.06831 92.9267 10.0597 98.0549 15.1992 101.186 20.9946 104.694 30.4533 106.692 41.1148 106.692 45.9263 106.692 50.7375 106.26 55.4943 105.396 62.1099 104.209 68.4522 101.941 74.3025 98.6486 79.0967 95.9046 83.4169 92.4049 87.0963 88.2844 93.2746 81.4287 96.9378 73.7635 99.6167 66.9619L100.71 66.9619C107.435 66.9619 111.59 64.3169 113.887 62.0495 115.418 60.646 116.566 58.9188 117.386 56.9755L117.878 55.572Z" fill="#0091E2" fill-rule="nonzero" fill-opacity="1" transform="matrix(1.0001 0 0 1 0.10981 0.0624735)"/><path d="M10.8799 60.484 21.2681 60.484C21.7603 60.484 22.1977 60.1063 22.1977 59.5665L22.1977 50.3898C22.1977 49.9039 21.8149 49.4722 21.2681 49.4722L10.8799 49.4722C10.3879 49.4722 9.95049 49.8498 9.95049 50.3898L9.95049 59.5665C10.0051 60.1063 10.3879 60.4842 10.8799 60.4842ZM25.2046 60.484 35.593 60.484C36.085 60.484 36.5224 60.1063 36.5224 59.5665L36.5224 50.3898C36.5224 49.9039 36.1396 49.4722 35.593 49.4722L25.2044 49.4722C24.7124 49.4722 24.275 49.8498 24.275 50.3898L24.275 59.5665C24.3298 60.1063 24.7126 60.4842 25.2044 60.4842M39.8026 60.4842 50.1909 60.4842C50.6829 60.4842 51.1203 60.1063 51.1203 59.5665L51.1203 50.3898C51.1203 49.9039 50.7375 49.4722 50.1909 49.4722L39.8026 49.4722C39.3105 49.4722 38.8731 49.8498 38.8731 50.3898L38.8731 59.5665C38.8731 60.1063 39.2559 60.4842 39.8026 60.4842ZM54.1821 60.4842 64.5704 60.4842C65.0624 60.4842 65.4998 60.1063 65.4998 59.5665L65.4998 50.3898C65.4998 49.9039 65.117 49.4722 64.5704 49.4722L54.1821 49.4722C53.69 49.4722 53.2526 49.8498 53.2526 50.3898L53.2526 59.5665C53.2526 60.1063 53.69 60.4842 54.1821 60.4842ZM25.2046 47.3669 35.5928 47.3669C36.0848 47.3669 36.5222 46.9352 36.5222 46.4492L36.5222 37.2725C36.5222 36.7865 36.1394 36.3546 35.5928 36.3546L25.2044 36.3546C24.7124 36.3546 24.275 36.7325 24.275 37.2725L24.275 46.4492C24.3298 46.935 24.7126 47.3669 25.2044 47.3669M39.8026 47.3669 50.1909 47.3669C50.6829 47.3669 51.1203 46.9352 51.1203 46.4492L51.1203 37.2725C51.1203 36.7865 50.7375 36.3546 50.1909 36.3546L39.8026 36.3546C39.3105 36.3546 38.8731 36.7325 38.8731 37.2725L38.8731 46.4492C38.8731 46.935 39.2559 47.3669 39.8026 47.3669M54.1821 47.3669 64.5704 47.3669C65.0624 47.3669 65.4998 46.9352 65.4998 46.4492L65.4998 37.2725C65.4998 36.7865 65.0622 36.3546 64.5704 36.3546L54.1821 36.3546C53.69 36.3546 53.2526 36.7325 53.2526 37.2725L53.2526 46.4492C53.2526 46.935 53.69 47.3669 54.1821 47.3669M54.1821 34.1955 64.5704 34.1955C65.0624 34.1955 65.4998 33.8176 65.4998 33.2779L65.4998 24.1011C65.4998 23.6152 65.0622 23.1833 64.5704 23.1833L54.1821 23.1833C53.69 23.1833 53.2526 23.5612 53.2526 24.1011L53.2526 33.2779C53.2526 33.7636 53.69 34.1955 54.1821 34.1955M68.6708 60.4842 79.0591 60.4842C79.5511 60.4842 79.9885 60.1063 79.9885 59.5665L79.9885 50.3898C79.9885 49.9039 79.6059 49.4722 79.0591 49.4722L68.671 49.4722C68.1788 49.4722 67.7413 49.8498 67.7413 50.3898L67.7413 59.5665C67.7961 60.1063 68.179 60.4842 68.671 60.4842" fill="#0091E2" fill-rule="nonzero" fill-opacity="1" transform="matrix(1.0001 0 0 1 0.10981 0.0624735)"/></g></g></svg>